# xmcd
#
# Track frame offsets: 
#        150
#        21004
#        41186
#        58194
#        71484
#        92013
#        109511
#        127105
#        148694
#        163972
#        182957
#        201674
#        217029
#        235389
#        250681
#        267215
#        285348
#        301110
#        319893
#
# Disc length: 4464 seconds
#
# Revision: 0
# Processed by: cddbd v1.5.2PL0 Copyright (c) Steve Scherf et al.
# Submitted via: ExactAudioCopy v0.95b4
#
DISCID=26116e13
DTITLE=Shania Twain - Up ! CD1
DYEAR=1900
DGENRE=Country
TTITLE0=That Good
TTITLE1=Ain't no particular way
TTITLE2=C'est la vie 
TTITLE3=Up \\ !
TTITLE4=I'm gonna get you good \\ I'm..
TTITLE5=She's not just a pretty face..
TTITLE6=Juanita 
TTITLE7=Forever and fo always
TTITLE8=It only hurts when I'm breat..
TTITLE9=Nah \\ !
TTITLE10=I'm \\ Jealous
TTITLE11=Ka \\ Ching
TTITLE12=Thank you baby (for making s..
TTITLE13=Waiter \\ Bring me water !
TTITLE14=What a way to wanna be \\ Wha..
TTITLE15=I ain't goin' down 
TTITLE16=I'm not in the mood (to say ..
TTITLE17=When you kiss me 
TTITLE18=In my car (I'll be the drive..
EXTD=
EXTT0=
EXTT1=
EXTT2=
EXTT3=
EXTT4=
EXTT5=
EXTT6=
EXTT7=
EXTT8=
EXTT9=
EXTT10=
EXTT11=
EXTT12=
EXTT13=
EXTT14=
EXTT15=
EXTT16=
EXTT17=
EXTT18=
PLAYORDER=
